<svg width="67" height="64" viewBox="0 0 67 64" fill="none" xmlns="http://www.w3.org/2000/svg">
<g opacity="0.37" clip-path="url(#clip0_39_123)">
<path d="M54.4375 26C54.4375 31.7375 52.4877 37.0375 49.2031 41.3375L65.7699 57.175C67.4057 58.7375 67.4057 61.275 65.7699 62.8375C64.1342 64.4 61.4777 64.4 59.842 62.8375L43.2752 47C38.7736 50.15 33.2252 52 27.2188 52C12.183 52 0 40.3625 0 26C0 11.6375 12.183 0 27.2188 0C42.2545 0 54.4375 11.6375 54.4375 26ZM27.2188 44C29.6933 44 32.1437 43.5344 34.4299 42.6298C36.7162 41.7253 38.7935 40.3994 40.5433 38.7279C42.2931 37.0565 43.6811 35.0722 44.6281 32.8883C45.5751 30.7044 46.0625 28.3638 46.0625 26C46.0625 23.6362 45.5751 21.2956 44.6281 19.1117C43.6811 16.9278 42.2931 14.9435 40.5433 13.2721C38.7935 11.6006 36.7162 10.2748 34.4299 9.37017C32.1437 8.46558 29.6933 8 27.2188 8C24.7442 8 22.2938 8.46558 20.0076 9.37017C17.7213 10.2748 15.644 11.6006 13.8942 13.2721C12.1444 14.9435 10.7564 16.9278 9.80939 19.1117C8.86241 21.2956 8.375 23.6362 8.375 26C8.375 28.3638 8.86241 30.7044 9.80939 32.8883C10.7564 35.0722 12.1444 37.0565 13.8942 38.7279C15.644 40.3994 17.7213 41.7253 20.0076 42.6298C22.2938 43.5344 24.7442 44 27.2188 44Z" fill="black"/>
</g>
<defs>
<clipPath id="clip0_39_123">
<rect width="67" height="64" fill="white"/>
</clipPath>
</defs>
</svg>
